<svg width="135" height="135" viewBox="0 0 135 135" fill="none" xmlns="http://www.w3.org/2000/svg">
<path d="M5.625 67.5C5.625 33.3281 33.3281 5.625 67.5 5.625C101.672 5.625 129.375 33.3281 129.375 67.5C129.375 101.672 101.672 129.375 67.5 129.375C33.3281 129.375 5.625 101.672 5.625 67.5ZM97.8638 54.1125C98.8631 53.0468 99.4086 51.6342 99.3848 50.1735C99.3611 48.7128 98.77 47.3186 97.7367 46.2859C96.7033 45.2533 95.3087 44.6632 93.8479 44.6405C92.3872 44.6178 90.975 45.1643 89.91 46.1644L56.0981 79.9706L45.4444 69.3225C44.3835 68.2979 42.9626 67.7309 41.4877 67.7437C40.0129 67.7565 38.6021 68.3481 37.5591 69.391C36.5162 70.4339 35.9247 71.8448 35.9118 73.3196C35.899 74.7945 36.466 76.2154 37.4906 77.2763L56.0981 95.8838L97.8638 54.1181V54.1125Z" fill="#1ABC54"/>
</svg>

